# xmcd CD database file
#
# Track frame offsets:
#	187
#	20675
#	40385
#	60737
#
# Disc length: 1069 seconds
#
# Revision: 3
# Processed by: cddbd v1.5.2PL0 Copyright (c) Steve Scherf et al.
# Submitted via: CDex 1.70beta2
#
DISCID=31042b04
DTITLE=DEEN - 手ごたえのない愛
DYEAR=1998
DGENRE=J ポップ
TTITLE0=手ごたえのない愛
TTITLE1=愛しい人
TTITLE2=手ごたえのない愛(ORIGINAL KARAOKE)
TTITLE3=愛しい人(ORIGINAL KARAOKE)
EXTD=YEAR: 1998
EXTT0=
EXTT1=
EXTT2=
EXTT3=
PLAYORDER=
